<?xml version="1.0" encoding="UTF-8" standalone="no"?>
<svg
   viewBox="0.0 0.0 348.0 348.0"
   fill="none"
   version="1.1"
   id="svg1001"
   sodipodi:docname="Rule of Three.svg"
   inkscape:version="1.1 (c68e22c387, 2021-05-23)"
   xmlns:inkscape="http://www.inkscape.org/namespaces/inkscape"
   xmlns:sodipodi="http://sodipodi.sourceforge.net/DTD/sodipodi-0.dtd"
   xmlns="http://www.w3.org/2000/svg"
   xmlns:svg="http://www.w3.org/2000/svg"
   xmlns:rdf="http://www.w3.org/1999/02/22-rdf-syntax-ns#"
   xmlns:cc="http://creativecommons.org/ns#"
   xmlns:dc="http://purl.org/dc/elements/1.1/">
  <metadata
     id="metadata1007">
    <rdf:RDF>
      <cc:Work
         rdf:about="">
        <dc:format>image/svg+xml</dc:format>
        <dc:type
           rdf:resource="http://purl.org/dc/dcmitype/StillImage" />
      </cc:Work>
    </rdf:RDF>
  </metadata>
  <defs
     id="defs1005" />
  <sodipodi:namedview
     pagecolor="#ffffff"
     bordercolor="#666666"
     borderopacity="1"
     objecttolerance="10"
     gridtolerance="10"
     guidetolerance="10"
     inkscape:pageopacity="0"
     inkscape:pageshadow="2"
     inkscape:window-width="1920"
     inkscape:window-height="1017"
     id="namedview1003"
     showgrid="true"
     inkscape:zoom="1.7703701"
     inkscape:cx="195.15694"
     inkscape:cy="133.58789"
     inkscape:window-x="1272"
     inkscape:window-y="-8"
     inkscape:window-maximized="1"
     inkscape:current-layer="svg1001"
     inkscape:pagecheckerboard="0">
    <inkscape:grid
       type="xygrid"
       id="grid829" />
  </sodipodi:namedview>
  <path
     d="M5.079 5.776h336.913v337.67H5.08z"
     id="path997"
     stroke-width="2"
     stroke="#000" />
  <path
     d="M282.734 40.554c0-8.376 6.966-15.165 15.56-15.165 4.126 0 8.084 1.597 11.001 4.441 2.918 2.844 4.558 6.702 4.558 10.724 0 8.376-6.966 15.165-15.56 15.165-8.593 0-15.559-6.79-15.559-15.165z"
     stroke-width="2"
     stroke="#000"
     id="path999" />
  <path
     d="m 245.41125,281.1109 c 22.99998,0 34.66663,-8.66666 34.66663,-26.33331 v -62.6666 c 0,-10.33333 -5.66666,-15.99999 -17.33331,-17.66665 11.66665,-1.33333 17.33331,-6.99999 17.33331,-17.33332 V 95.111083 c 0,-17.999983 -11.66665,-26.999974 -34.66663,-26.999974 h -85.66658 c -22.99998,0 -34.66664,8.999991 -34.66664,26.999974 v 39.333297 h 68.6666 v -12.33332 c 0,-0.33334 0.33334,-0.66667 0.66667,-0.66667 h 15.66665 c 0.33333,0 0.66667,0.33333 0.66667,0.66667 v 30.66663 c 0,0.33334 -0.33334,0.66667 -0.66667,0.66667 h -84.66658 v 42.33329 h 84.66658 c 0.33333,0 0.66667,0.33333 0.66667,0.66667 v 30.99997 c 0,0.33333 -0.33334,0.66666 -0.66667,0.66666 H 194.4113 c -0.33333,0 -0.66667,-0.33333 -0.66667,-0.66666 v -12.66666 h -69.33326 v 39.99996 c 0,17.66665 11.66665,26.33331 34.66663,26.33331 z"
     style="font-family:Pricedown;-inkscape-font-specification:Pricedown;fill:#969696;fill-opacity:1;stroke:#000000;stroke-opacity:1;stroke-width:8;stroke-miterlimit:4;stroke-dasharray:none"
     id="path18219" />
  <g
     aria-label="3"
     transform="skewX(-9.3369004)"
     id="text2429"
     style="font-size:333.333px;line-height:1.25;fill:#969696;fill-opacity:1;stroke:#000000;stroke-opacity:1;stroke-width:8;stroke-miterlimit:4;stroke-dasharray:none" />
  <circle
     style="fill:#c8c8c8;fill-opacity:1;stroke:#000000;stroke-width:5;stroke-miterlimit:4;stroke-dasharray:none;stroke-opacity:1"
     id="path18049"
     cx="70.156906"
     cy="66.119247"
     r="27.5" />
</svg>
